<svg width="25" height="24" viewBox="0 0 25 24" fill="none" xmlns="http://www.w3.org/2000/svg">
<path d="M8.08602 18.494L8.81002 18.917C10.031 19.6291 11.4196 20.0029 12.833 20C14.4153 20 15.962 19.5308 17.2776 18.6518C18.5932 17.7727 19.6186 16.5233 20.2241 15.0615C20.8296 13.5997 20.988 11.9911 20.6793 10.4393C20.3706 8.88743 19.6087 7.46197 18.4899 6.34315C17.3711 5.22433 15.9456 4.4624 14.3937 4.15372C12.8419 3.84504 11.2334 4.00346 9.77155 4.60896C8.30975 5.21447 7.06032 6.23984 6.18126 7.55544C5.30221 8.87103 4.83302 10.4177 4.83302 12C4.83302 13.436 5.21002 14.813 5.91702 16.024L6.33902 16.748L5.68602 19.149L8.08602 18.494ZM2.83702 22L4.18902 17.032C3.29816 15.5049 2.83012 13.768 2.83302 12C2.83302 6.477 7.31002 2 12.833 2C18.356 2 22.833 6.477 22.833 12C22.833 17.523 18.356 22 12.833 22C11.0658 22.0029 9.32968 21.5352 7.80302 20.645L2.83702 22ZM9.22402 7.308C9.35802 7.298 9.49302 7.298 9.62702 7.304C9.68102 7.308 9.73502 7.314 9.78902 7.32C9.94802 7.338 10.123 7.435 10.182 7.569C10.48 8.245 10.77 8.926 11.05 9.609C11.112 9.761 11.075 9.956 10.957 10.146C10.8759 10.2745 10.7881 10.3986 10.694 10.518C10.581 10.663 10.338 10.929 10.338 10.929C10.338 10.929 10.239 11.047 10.277 11.194C10.291 11.25 10.337 11.331 10.379 11.399L10.438 11.494C10.694 11.921 11.038 12.354 11.458 12.762C11.578 12.878 11.695 12.997 11.821 13.108C12.289 13.521 12.819 13.858 13.391 14.108L13.396 14.11C13.481 14.147 13.524 14.167 13.648 14.22C13.71 14.246 13.774 14.269 13.839 14.286C13.9062 14.3031 13.9769 14.2999 14.0423 14.2767C14.1076 14.2536 14.1646 14.2116 14.206 14.156C14.93 13.279 14.996 13.222 15.002 13.222V13.224C15.0523 13.1771 15.1121 13.1415 15.1773 13.1196C15.2425 13.0977 15.3116 13.09 15.38 13.097C15.44 13.101 15.501 13.112 15.557 13.137C16.088 13.38 16.957 13.759 16.957 13.759L17.539 14.02C17.637 14.067 17.726 14.178 17.729 14.285C17.733 14.352 17.739 14.46 17.716 14.658C17.684 14.917 17.606 15.228 17.528 15.391C17.4746 15.5022 17.4037 15.6042 17.318 15.693C17.2171 15.7989 17.1066 15.8954 16.988 15.981C16.947 16.0119 16.9053 16.0419 16.863 16.071C16.7386 16.1499 16.6109 16.2233 16.48 16.291C16.2226 16.4278 15.9382 16.5063 15.647 16.521C15.462 16.531 15.277 16.545 15.091 16.535C15.083 16.535 14.523 16.448 14.523 16.448C13.1013 16.074 11.7864 15.3735 10.683 14.402C10.457 14.203 10.248 13.989 10.034 13.776C9.14402 12.891 8.47202 11.936 8.06402 11.034C7.85519 10.5913 7.74239 10.1094 7.73302 9.62C7.7289 9.01285 7.92737 8.42167 8.29702 7.94C8.37002 7.846 8.43902 7.748 8.55802 7.635C8.68502 7.515 8.76502 7.451 8.85202 7.407C8.9677 7.34903 9.09388 7.31502 9.22302 7.307L9.22402 7.308Z" fill="#F3F4F9"/>
</svg>
